<svg enable-background="new 0 0 24 24" height="50" viewBox="0 0 24 24" width="50" xmlns="http://www.w3.org/2000/svg"><path d="m18.92 7.53v2.47c-.62.03-1.22.26-1.7.68l-3.279 2.86c-.601.53-.941 1.28-.941 2.07 0 .8.34 1.56.94 2.08l2.66 2.31h-14.52c-.55 0-1-.45-1-1v-11.47z" fill="#ffb74d"/><path d="m12.433 11.081h-4.866c-.447 0-.811-.363-.811-.81 0-.448.363-.812.811-.812h4.865c.447 0 .81.363.81.812.001.447-.362.81-.809.81z" fill="#795548"/><path d="m19.5 7.527h-19c-.276 0-.5-.225-.5-.5v-3.284h20v3.284c0 .276-.224.5-.5.5z" fill="#ffcc80"/><path d="m20 3.743-2.973-3.743h-14.054l-2.973 3.743z" fill="#ffa726"/><path d="m10 7.53h-8.92v11.47c0 .55.45 1 1 1h7.92v-8.919h-2.433c-.447 0-.811-.363-.811-.81 0-.448.363-.812.811-.812h2.433z" fill="#de9f43"/><path d="m10 9.459h-2.433c-.447 0-.811.363-.811.812 0 .447.363.81.811.81h2.433z" fill="#694a3f"/><path d="m10 3.743h-10v3.284c0 .275.224.5.5.5h9.5z" fill="#deb26f"/><path d="m10 0h-7.027l-2.973 3.743h10z" fill="#de9121"/><path d="m17.743 14.87 1.781-1.555c.313-.272.345-.746.072-1.058-.272-.313-.746-.344-1.059-.072l-3.281 2.864-.015.02-.13.175-.047.069c-.04.092-.064.193-.064.301 0 .107.024.208.065.301l.047.069.13.175.015.02 3.281 2.863c.143.124.318.185.493.185.209 0 .417-.087.565-.257.272-.312.24-.786-.072-1.058l-1.758-1.534c2.622.079 4.733 2.268 4.733 4.962v1.909c0 .414.336.75.75.75s.75-.336.75-.75v-1.909c.001-3.53-2.795-6.405-6.256-6.47z" fill="#f44336"/><path d="m19.032 12c-.175 0-.351.061-.494.185l-3.281 2.864-.015.02-.13.175-.047.069c-.041.092-.065.193-.065.301 0 .107.024.208.065.301l.047.069.13.175.015.02 3.281 2.863c.143.124.318.185.493.185.209 0 .417-.087.565-.257.272-.312.24-.786-.072-1.058l-1.758-1.534c1.252.038 2.388.557 3.233 1.383v-1.909c-.948-.603-2.063-.96-3.257-.982l1.781-1.555c.313-.272.345-.746.072-1.058-.147-.17-.354-.257-.563-.257z" fill="#d43a2f"/></svg>