<svg id="Capa_1" enable-background="new 0 0 512 512" height="90" viewBox="0 0 512 512" width="250" xmlns="http://www.w3.org/2000/svg"><g><g><g><path d="m295.943 171.656c-7.999 0-14.483-6.484-14.483-14.483v-76.258c0-28.081-22.299-51.515-50.377-51.943-28.579-.436-51.967 22.685-51.967 51.166v77.035c0 7.999-6.484 14.483-14.483 14.483-7.999 0-14.483-6.484-14.483-14.483v-76.013c0-44.12 35.23-80.729 79.348-81.156 44.549-.432 80.929 35.683 80.929 80.134v77.035c-.001 7.999-6.485 14.483-14.484 14.483z" fill="#ff993a"/></g><g><path d="m230.435 0c-44.159-.08-80.285 37.007-80.285 81.167v12.301c0 7.999 6.484 14.483 14.483 14.483 7.999 0 14.483-6.484 14.483-14.483v-13.33c0-28.481 23.388-51.602 51.967-51.166 12.616.193 24.066 5.03 32.85 12.846 5.75 5.117 14.444 4.991 19.887-.451.07-.07.139-.139.209-.209 5.827-5.827 5.627-15.394-.528-20.874-14.126-12.579-32.715-20.247-53.066-20.284z" fill="#ffaf40"/></g><path d="m363.45 512h-313.359c-8.383 0-15.052-7.03-14.61-15.402l19.087-361.666c.41-7.77 6.83-13.86 14.61-13.86h275.185c7.781 0 14.2 6.09 14.61 13.86l19.087 361.666c.442 8.372-6.227 15.402-14.61 15.402z" fill="#fe255f"/><path d="m85.496 354.577 8.726-165.324c.641-12.148-9.036-22.349-21.201-22.349-11.29 0-20.606 8.837-21.201 20.111l-8.726 165.324c-.641 12.148 9.036 22.349 21.201 22.349 11.291 0 20.606-8.836 21.201-20.111z" fill="#fc709b"/><path d="m48.913 242.102-1.84 34.854c-.641 12.148 9.036 22.349 21.201 22.349 11.29 0 20.606-8.837 21.201-20.111l1.84-34.854c.641-12.148-9.036-22.349-21.201-22.349-11.29 0-20.606 8.836-21.201 20.111z" fill="#f7a6c1"/><path d="m363.45 512h-230.49c109.55-37.41 188.33-141.24 188.33-263.46 0-45.94-11.13-89.28-30.84-127.47h53.91c7.78 0 14.2 6.09 14.61 13.86l19.09 361.67c.44 8.37-6.23 15.4-14.61 15.4z" fill="#e01152"/><g><g><circle cx="206.768" cy="310.396" fill="#ffc751" r="89.337"/><g><g><path d="m296.11 310.393c0 49.339-40.004 89.343-89.343 89.343-5.857 0-11.57-.562-17.104-1.649 44.056-6.992 77.726-45.156 77.726-91.184 0-38.929-24.084-72.228-58.172-85.817 48.203 1.303 86.893 40.793 86.893 89.307z" fill="#ffaf40"/><path d="m165.585 370.197c.086-.086.172-.172.259-.258 6.649-6.642 6.91-17.275.713-24.341-8.254-9.411-13.264-21.733-13.264-35.205 0-23.122 14.754-42.852 35.341-50.293 7.009-2.533 11.58-9.314 11.58-16.766 0-12.401-12.313-21.13-23.968-16.895-34.306 12.465-58.81 45.338-58.81 83.954 0 22.597 8.391 43.229 22.227 58.956 6.783 7.711 18.657 8.106 25.922.848z" fill="#ffe059"/><path d="m144.859 246.035c-7.878 7.575-14.369 16.581-19.052 26.601-5.516 11.802 3.032 25.346 16.059 25.346h.397c6.876 0 13.135-3.971 16.055-10.197 2.789-5.947 6.643-11.299 11.315-15.81 6.746-6.514 7.247-17.126 1.189-24.284-.079-.093-.157-.186-.236-.279-6.572-7.76-18.397-8.425-25.727-1.377z" fill="#fff370"/></g></g></g><g><g><g><g><g><path d="m175.113 260.568c-10.02 0-18.172 8.152-18.172 18.173 0 10.02 8.152 18.172 18.172 18.172s18.173-8.152 18.173-18.172c0-10.021-8.152-18.173-18.173-18.173z" fill="#fe255f"/></g></g><g><g><path d="m238.428 323.882c-10.02 0-18.173 8.152-18.173 18.172s8.152 18.173 18.173 18.173c10.02 0 18.172-8.152 18.172-18.173 0-10.02-8.152-18.172-18.172-18.172z" fill="#fe255f"/></g></g></g><g><g><path d="m170.521 346.647c-5.708-5.708-5.708-14.961 0-20.669l55.604-55.604c5.708-5.707 14.961-5.707 20.669 0 5.708 5.708 5.708 14.961 0 20.669l-55.604 55.604c-5.707 5.707-14.961 5.707-20.669 0z" fill="#fe255f"/></g><path d="m207.113 289.387-10.411 10.411c-5.708 5.707-5.708 14.961 0 20.669 5.708 5.708 14.961 5.708 20.669 0l10.411-10.411c5.708-5.707 5.708-14.961 0-20.669-5.708-5.708-14.962-5.708-20.669 0z" fill="#fc709b"/></g></g></g></g><g><path d="m272.426 171.656c-7.999 0-14.483-6.484-14.483-14.483v-76.258c0-28.081-22.299-51.515-50.377-51.943-28.579-.436-51.967 22.685-51.967 51.166v77.035c0 7.999-6.484 14.483-14.483 14.483-7.999 0-14.483-6.484-14.483-14.483v-76.013c0-44.12 35.23-80.729 79.348-81.156 44.549-.432 80.929 35.683 80.929 80.134v77.035c-.001 7.999-6.485 14.483-14.484 14.483z" fill="#ffc751"/></g><g><path d="m206.918 0c-44.159-.08-80.285 37.007-80.285 81.167v12.301c0 7.999 6.484 14.483 14.483 14.483 7.999 0 14.483-6.484 14.483-14.483v-13.33c0-28.481 23.388-51.602 51.967-51.166 12.616.193 24.066 5.03 32.85 12.846 5.75 5.117 14.444 4.991 19.887-.451.07-.07.139-.139.209-.209 5.827-5.827 5.627-15.394-.528-20.874-14.127-12.579-32.715-20.247-53.066-20.284z" fill="#ffe059"/></g><g><path d="m159.158 16.168c-6.365 4.821-12.011 10.568-16.738 17.026-6.86 9.372-.192 22.568 11.422 22.568h.22c4.563 0 8.798-2.234 11.506-5.907 2.979-4.04 6.537-7.625 10.551-10.637 5.065-3.8 7.144-10.421 4.922-16.35-.034-.09-.067-.18-.101-.27-3.32-8.869-14.232-12.148-21.782-6.43z" fill="#fff370"/></g></g><path d="m461.536 512h-141.768c-8.284 0-15-6.716-15-15v-191.768c0-8.284 6.716-15 15-15h141.768c8.284 0 15 6.716 15 15v191.768c0 8.284-6.716 15-15 15z" fill="#595751"/><path d="m476.54 305.23v191.77c0 8.28-6.72 15-15 15h-141.77c-8.29 0-15-6.72-15-15v-3.14c86.23-14.63 151.89-89.69 151.89-180.08 0-7.98-.51-15.84-1.51-23.55h6.39c8.28 0 15 6.72 15 15z" fill="#44433f"/><path d="m304.768 305.232v19.571c0 13.807 11.193 25 25 25h121.768c13.807 0 25-11.193 25-25v-19.571c0-8.284-6.716-15-15-15h-141.768c-8.284 0-15 6.716-15 15z" fill="#706c64"/><path d="m475.94 305.23v19.57c0 13.28-10.36 24.14-23.42 24.95 2.32-11.63 3.54-23.66 3.54-35.97 0-7.98-.51-15.84-1.51-23.55h6.39c8.28 0 15 6.72 15 15z" fill="#595751"/><path d="m412.043 302.742c0-6.909-5.601-12.51-12.51-12.51h-63.409c-6.909 0-12.51 5.601-12.51 12.51 0 6.909 5.601 12.51 12.51 12.51h63.409c6.909 0 12.51-5.601 12.51-12.51z" fill="#8f8b81"/><path d="m367.382 290.232h-12.671c-6.909 0-12.51 5.601-12.51 12.51 0 6.909 5.601 12.51 12.51 12.51h12.671c6.909 0 12.51-5.601 12.51-12.51 0-6.909-5.601-12.51-12.51-12.51z" fill="#b5b1a4"/><g><circle cx="390.652" cy="351.298" fill="#29e088" r="22.824"/><path d="m413.48 351.3c0 12.6-10.22 22.82-22.83 22.82-8.96 0-16.72-5.17-20.45-12.69 3.39 2.1 7.39 3.31 11.67 3.31 12.27 0 22.22-9.95 22.22-22.23 0-4.28-1.22-8.29-3.32-11.68 7.53 3.73 12.71 11.5 12.71 20.47z" fill="#0cc166"/></g></g></svg>